<?xml version="1.0" encoding="UTF-8"?>
<svg id="Capa_2" data-name="Capa 2" xmlns="http://www.w3.org/2000/svg" viewBox="0 0 114.63 216.03">
  <defs>
    <style>
      .cls-1 {
        fill: #fff;
      }
    </style>
  </defs>
  <g id="Capa_1-2" data-name="Capa 1">
    <path class="cls-1" d="m0,91.75v-57.8h23.14c4.25,0,7.8.63,10.64,1.89,2.84,1.26,4.98,3.01,6.41,5.23,1.43,2.23,2.14,4.79,2.14,7.69,0,2.26-.45,4.24-1.35,5.94-.9,1.7-2.14,3.09-3.71,4.18-1.57,1.08-3.36,1.85-5.38,2.3v.56c2.2.09,4.27.72,6.19,1.86,1.93,1.15,3.49,2.75,4.7,4.81,1.2,2.06,1.81,4.51,1.81,7.35,0,3.07-.76,5.8-2.27,8.2-1.51,2.4-3.75,4.29-6.7,5.69-2.95,1.39-6.59,2.09-10.92,2.09H0Zm12.22-33.61h9.06c1.67,0,3.16-.3,4.47-.89,1.31-.59,2.34-1.43,3.1-2.53s1.14-2.4,1.14-3.92c0-2.09-.74-3.77-2.21-5.05-1.48-1.28-3.57-1.92-6.28-1.92h-9.28v14.31Zm0,23.62h9.96c3.4,0,5.89-.65,7.45-1.96,1.56-1.31,2.34-3.05,2.34-5.23,0-1.6-.39-3.01-1.16-4.23-.77-1.22-1.87-2.18-3.29-2.88-1.42-.7-3.11-1.04-5.07-1.04h-10.24v15.35Z"/>
    <path class="cls-1" d="m64.74,33.96v57.8h-12.22v-57.8h12.22Z"/>
    <path class="cls-1" d="m74.81,91.75v-57.8h38.94v10.07h-26.72v13.77h24.72v10.07h-24.72v13.8h26.84v10.07h-39.06Z"/>
    <path class="cls-1" d="m36.75,110.32v43.87h-8.01l-19.09-27.61h-.32v27.61H.05v-43.87h8.14l18.94,27.59h.39v-27.59h9.23Z"/>
    <path class="cls-1" d="m44.39,154.19v-43.87h29.56v7.65h-20.29v10.45h18.76v7.65h-18.76v10.47h20.37v7.65h-29.65Z"/>
    <path class="cls-1" d="m105.14,122.94c-.17-1.73-.91-3.07-2.21-4.03s-3.06-1.44-5.29-1.44c-1.51,0-2.79.21-3.83.63-1.04.42-1.84,1-2.39,1.75-.55.74-.82,1.59-.82,2.53-.03.79.14,1.47.5,2.06.36.59.87,1.09,1.51,1.51.64.42,1.39.79,2.23,1.09.84.31,1.74.57,2.7.78l3.94.94c1.91.43,3.67,1,5.27,1.71,1.6.71,2.98,1.59,4.16,2.63,1.17,1.04,2.08,2.27,2.73,3.68.65,1.41.98,3.03,1,4.86-.02,2.68-.7,5.01-2.05,6.97-1.35,1.96-3.29,3.48-5.83,4.56s-5.59,1.62-9.16,1.62-6.62-.54-9.24-1.63c-2.62-1.09-4.66-2.7-6.13-4.83-1.46-2.13-2.23-4.78-2.3-7.94h8.98c.1,1.47.52,2.7,1.27,3.67.75.98,1.76,1.71,3.02,2.21s2.7.74,4.29.74,2.94-.23,4.1-.69c1.16-.46,2.07-1.09,2.71-1.91.64-.81.96-1.75.96-2.81,0-.99-.29-1.81-.87-2.48-.58-.67-1.42-1.24-2.53-1.71s-2.46-.9-4.06-1.29l-4.78-1.2c-3.7-.9-6.62-2.31-8.76-4.22-2.14-1.91-3.21-4.49-3.19-7.73-.01-2.66.7-4.98,2.13-6.96,1.44-1.98,3.41-3.53,5.92-4.65,2.51-1.11,5.37-1.67,8.57-1.67s6.1.56,8.54,1.67c2.43,1.11,4.33,2.66,5.69,4.65,1.36,1.99,2.06,4.28,2.1,6.9h-8.89Z"/>
    <g>
      <path class="cls-1" d="m.05,180.39v-7.53h35.46v7.53h-13.22v35.65h-9.02v-35.65H.05Z"/>
      <path class="cls-1" d="m43.5,216.03h-9.78l14.9-43.18h11.76l14.88,43.18h-9.78l-10.82-33.31h-.34l-10.84,33.31Zm-.61-16.97h23.11v7.13h-23.11v-7.13Z"/>
      <path class="cls-1" d="m80.46,216.03v-43.18h17.03c3.26,0,6.05.58,8.36,1.74s4.08,2.8,5.29,4.91c1.22,2.12,1.82,4.6,1.82,7.45s-.62,5.33-1.86,7.39c-1.24,2.06-3.02,3.64-5.36,4.73s-5.17,1.64-8.49,1.64h-11.41v-7.34h9.93c1.74,0,3.19-.24,4.34-.72,1.15-.48,2.01-1.19,2.58-2.15.57-.96.85-2.14.85-3.56s-.28-2.64-.85-3.63c-.57-.98-1.43-1.73-2.59-2.25-1.16-.51-2.62-.77-4.37-.77h-6.16v35.71h-9.13Zm23.32-19.65l10.73,19.65h-10.08l-10.5-19.65h9.85Z"/>
    </g>
    <g>
      <path class="cls-1" d="m.41,23.03V.31h8.97c1.72,0,3.19.33,4.4.98,1.21.65,2.14,1.56,2.78,2.72.64,1.16.96,2.49.96,4s-.33,2.84-.98,3.99c-.65,1.15-1.59,2.05-2.82,2.7s-2.72.97-4.47.97H3.53v-3.85h4.94c.92,0,1.69-.16,2.29-.48.6-.32,1.05-.77,1.35-1.34.3-.57.45-1.23.45-1.98s-.15-1.41-.45-1.98-.75-1.01-1.36-1.32-1.38-.47-2.31-.47h-3.24v18.8H.41Z"/>
      <path class="cls-1" d="m41.53,11.67c0,2.48-.47,4.59-1.4,6.32-.94,1.74-2.21,3.06-3.82,3.98-1.61.91-3.42,1.37-5.42,1.37s-3.83-.46-5.44-1.38c-1.61-.92-2.87-2.25-3.81-3.98s-1.4-3.84-1.4-6.31.47-4.59,1.4-6.32,2.2-3.06,3.81-3.98,3.42-1.37,5.44-1.37,3.81.46,5.42,1.37c1.61.91,2.88,2.24,3.82,3.98s1.4,3.85,1.4,6.32Zm-4.87,0c0-1.6-.24-2.96-.71-4.06-.48-1.1-1.15-1.94-2.01-2.51-.87-.57-1.88-.85-3.04-.85s-2.17.28-3.04.85c-.87.57-1.54,1.41-2.01,2.51-.48,1.1-.72,2.46-.72,4.06s.24,2.96.72,4.06,1.15,1.94,2.01,2.51c.87.57,1.88.85,3.04.85s2.17-.28,3.04-.85c.87-.57,1.54-1.41,2.01-2.51.48-1.1.71-2.46.71-4.06Z"/>
      <path class="cls-1" d="m45.08,23.03V.31h8.97c1.72,0,3.18.31,4.4.92s2.14,1.47,2.79,2.58c.64,1.11.96,2.42.96,3.92s-.33,2.81-.98,3.89c-.65,1.08-1.59,1.91-2.82,2.49-1.23.58-2.72.87-4.47.87h-6v-3.86h5.23c.92,0,1.68-.13,2.29-.38s1.06-.63,1.36-1.13c.3-.5.45-1.13.45-1.88s-.15-1.39-.45-1.91c-.3-.52-.75-.91-1.37-1.18s-1.38-.41-2.3-.41h-3.24v18.8h-4.8Zm12.27-10.34l5.65,10.34h-5.3l-5.53-10.34h5.18Z"/>
      <path class="cls-1" d="m86.86.31h4.8v14.76c0,1.66-.39,3.11-1.18,4.35-.79,1.24-1.89,2.21-3.3,2.9-1.41.69-3.06,1.04-4.94,1.04s-3.54-.35-4.95-1.04c-1.41-.69-2.51-1.66-3.29-2.9s-1.18-2.69-1.18-4.35V.31h4.8v14.35c0,.87.19,1.63.57,2.31.38.67.92,1.2,1.61,1.59s1.51.58,2.43.58,1.74-.19,2.43-.58c.69-.38,1.23-.91,1.61-1.59.38-.67.57-1.44.57-2.31V.31Z"/>
      <path class="cls-1" d="m114.62.31v22.72h-4.15l-9.89-14.3h-.17v14.3h-4.8V.31h4.22l9.81,14.29h.2V.31h4.78Z"/>
    </g>
  </g>
</svg>